<svg xmlns="http://www.w3.org/2000/svg" width="320" height="320" fill-rule="evenodd" clip-rule="evenodd" image-rendering="optimizeQuality" shape-rendering="geometricPrecision" text-rendering="geometricPrecision" viewBox="0 0 8466.66 8466.66"><rect width="8466.67" height="8466.67" x="-.01" y="-.01" fill="none"/><path fill="gray" fill-rule="nonzero" d="M4457.87 107.42c492.9,0 932,476.8 1243.45,1247.66 302.04,747.58 488.87,1778.34 488.87,2915.03 0,1136.69 -186.83,2167.45 -488.87,2915.03 -311.45,770.86 -750.55,1247.66 -1243.45,1247.66 -492.9,0 -932,-476.8 -1243.45,-1247.66 -302.04,-747.58 -488.87,-1778.34 -488.87,-2915.03 0,-1136.69 186.83,-2167.45 488.87,-2915.03 311.45,-770.86 750.55,-1247.66 1243.45,-1247.66zm1086.69 1310.5c-284.86,-705.06 -669.61,-1141.16 -1086.69,-1141.16 -417.08,0 -801.83,436.1 -1086.69,1141.16 -294.27,728.34 -476.29,1736.63 -476.29,2852.19 0,1115.56 182.02,2123.85 476.29,2852.19 284.86,705.06 669.61,1141.16 1086.69,1141.16 417.08,0 801.83,-436.1 1086.69,-1141.16 294.27,-728.34 476.29,-1736.63 476.29,-2852.19 0,-1115.56 -182.02,-2123.85 -476.29,-2852.19z"/><path fill="gray" fill-rule="nonzero" d="M853.11 2188.77c246.45,-426.85 878.67,-568.76 1701.6,-453.11 798.05,112.15 1784.11,465.84 2768.99,1034.45l0.25 0.15 0.08 -0.15c984.48,568.4 1783.76,1245.58 2280.13,1880.91 511.63,654.86 704.87,1273.32 458.47,1700.1l-0.15 0.25 0.15 0.08c-246.45,426.86 -878.68,568.76 -1701.6,453.11 -798.05,-112.14 -1784.12,-465.84 -2768.99,-1034.45l-0.25 -0.15 -0.08 0.15c-984.48,-568.4 -1783.76,-1245.58 -2280.13,-1880.91 -511.63,-654.86 -704.87,-1273.32 -458.47,-1700.1l0.15 -0.25 -0.15 -0.08zm1678.44 -285.77c-753.43,-105.88 -1323.73,9.24 -1532.26,370.43l-0.14 -0.08c-208.34,361.26 -22.9,912.62 445.39,1512.01 483.65,619.06 1265.83,1280.84 2231.83,1838.57l-0.08 0.14c965.53,557.42 1929.67,903.79 2707.9,1013.15 753.42,105.88 1323.72,-9.23 1532.26,-370.43l0.14 0.08c208.34,-361.26 22.9,-912.62 -445.39,-1512.01 -483.65,-619.06 -1265.83,-1280.84 -2231.83,-1838.57l0.08 -0.14c-965.54,-557.42 -1929.67,-903.78 -2707.9,-1013.15z"/><path fill="gray" fill-rule="nonzero" d="M8065.79 2194.78c241.47,426.58 47.75,1042.44 -461.63,1694.42 -496.37,635.33 -1295.65,1312.51 -2280.13,1880.91l-4.89 2.61c-983.35,567.08 -1967.61,919.87 -2764.43,1031.84 -822.92,115.65 -1455.15,-26.25 -1701.6,-453.11l-3.16 -6.01c-241.47,-426.58 -47.75,-1042.44 461.63,-1694.42 496.37,-635.33 1295.65,-1312.51 2280.13,-1880.91l4.89 -2.61c983.36,-567.08 1967.61,-919.86 2764.43,-1031.84 822.93,-115.65 1455.15,26.26 1701.6,453.11l3.16 6.01zm-594.59 1590.58c466.84,-597.53 652.53,-1147.3 447.27,-1508.62l-2.02 -3.31c-208.53,-361.19 -778.83,-476.31 -1532.26,-370.43 -777.09,109.21 -1739.52,454.73 -2703.65,1010.71l-4.17 2.58c-966,557.73 -1748.18,1219.51 -2231.83,1838.57 -466.84,597.53 -652.53,1147.3 -447.27,1508.62l2.02 3.31c208.54,361.2 778.84,476.31 1532.26,370.43 777.09,-109.2 1739.53,-454.73 2703.65,-1010.71l4.17 -2.58c966,-557.73 1748.18,-1219.51 2231.83,-1838.57z"/><circle cx="4457.87" cy="4270.11" r="988.61" fill="#fe4a4b"/><circle cx="5807.98" cy="6608.41" r="544.74" fill="#2b97b3"/><circle cx="926.23" cy="6309.1" r="544.74" fill="#2b97b3"/><circle cx="5227.42" cy="663.27" r="544.74" fill="#2b97b3"/></svg>